<?xml version="1.0" encoding="UTF-8" standalone="no"?>
<!-- Created with Inkscape (http://www.inkscape.org/) -->

<svg
   width="512"
   height="300"
   version="1.1"
   viewBox="0 0 135.47 79.375"
   id="svg5"
   xmlns="http://www.w3.org/2000/svg"
   xmlns:svg="http://www.w3.org/2000/svg">
  <defs
     id="defs4">
    <linearGradient
       id="linearGradient10"
       x1="57.868"
       x2="58.412"
       y1="62.759"
       y2="2.3872"
       gradientUnits="userSpaceOnUse">
      <stop
         stop-color="#c94400"
         offset="0"
         id="stop1"
         style="stop-color:#001ec9;stop-opacity:1;" />
      <stop
         stop-color="#f48200"
         stop-opacity=".7098"
         offset="0.53623003"
         id="stop2"
         style="stop-color:#3a57ff;stop-opacity:1;" />
      <stop
         stop-color="#fd8600"
         stop-opacity=".7098"
         offset="0.64752001"
         id="stop3"
         style="stop-color:#3a57ff;stop-opacity:1;" />
      <stop
         stop-color="#c94400"
         offset="1"
         id="stop4"
         style="stop-color:#001ec9;stop-opacity:1;" />
    </linearGradient>
  </defs>
  <g
     id="g5">
    <rect
       x="4.452"
       y="5.2591"
       width="126.56"
       height="68.857"
       ry="12.909"
       fill="url(#linearGradient10)"
       stroke="#fff"
       stroke-width="2.6458"
       id="rect4" />
    <path
       d="m11.547 28.798c-0.27168-3.9394-1.2226-10.596 3.2602-12.497 4.4828-1.9018 4.279 3.8036 4.279 3.8036s-0.74713 2.9885-7.5392 8.6938z"
       fill="#fff"
       stroke-width="0"
       id="path4" />
    <path
       d="m19.561 13.041s0.95089 2.1735 2.8527 2.9885 4.0573-2.8846 2.7847-3.6677c-2.6489-1.6301-5.6374 0.67921-5.6374 0.67921z"
       fill="#fff"
       stroke-width="0"
       id="path5" />
  </g>
  <path
     style="opacity:1;fill:#ffffff;fill-opacity:1;stroke:#c94400;stroke-width:2.6459;stroke-opacity:0.0444444"
     id="path6"
     d="m 115.42108,36.941757 c -0.24026,0.182921 -12.84966,-7.422363 -13.15154,-7.415595 -0.30189,0.0068 -12.557782,8.169519 -12.805992,7.99755 -0.24821,-0.171969 3.088325,-14.514385 2.9886,-14.799405 -0.09972,-0.28502 -11.650241,-9.418636 -11.563389,-9.707839 0.08685,-0.289203 14.758345,-1.548019 14.998598,-1.730939 0.240254,-0.182921 5.357533,-13.9905566 5.659423,-13.9973247 0.30188,-0.00677 6.03283,13.5576557 6.28104,13.7296257 0.24821,0.171969 14.96138,0.771996 15.0611,1.057016 0.0997,0.28502 -11.02985,9.927112 -11.1167,10.216315 -0.0868,0.289203 3.88911,14.467676 3.64886,14.650596 z"
     transform="matrix(0.18937659,0,0,0.18937659,82.027387,13.304678)" />
  <path
     style="opacity:1;fill:#ffffff;fill-opacity:1;stroke:#c94400;stroke-width:2.6459;stroke-opacity:0.0444444"
     id="path7"
     d="m 115.42108,36.941757 c -0.24026,0.182921 -12.84966,-7.422363 -13.15154,-7.415595 -0.30189,0.0068 -12.557782,8.169519 -12.805992,7.99755 -0.24821,-0.171969 3.088325,-14.514385 2.9886,-14.799405 -0.09972,-0.28502 -11.650241,-9.418636 -11.563389,-9.707839 0.08685,-0.289203 14.758345,-1.548019 14.998598,-1.730939 0.240254,-0.182921 5.357533,-13.9905566 5.659423,-13.9973247 0.30188,-0.00677 6.03283,13.5576557 6.28104,13.7296257 0.24821,0.171969 14.96138,0.771996 15.0611,1.057016 0.0997,0.28502 -11.02985,9.927112 -11.1167,10.216315 -0.0868,0.289203 3.88911,14.467676 3.64886,14.650596 z"
     transform="matrix(0.26964832,0.15270475,-0.15270475,0.26964832,89.033658,-4.7581482)" />
</svg>
