<?xml version="1.0" encoding="UTF-8"?>
<!-- Created with Inkscape (http://www.inkscape.org/) -->
<svg width="256" height="256" version="1.1" viewBox="0 0 67.733 67.733" xml:space="preserve" xmlns="http://www.w3.org/2000/svg"><circle cx="35.156" cy="34.291" r="28.68" fill="#ce9622" stroke="#f7de00" stroke-width="5.2917"/><path d="m16.627 16.001s1.2541-1.3778 3.3989-2.9059c1.006-0.71682 2.2494-1.4242 3.5193-2.1052 1.649-0.88432 3.6401-1.5399 5.3732-1.9613 0.63793-0.15511 1.2103-0.30781 1.8823-0.41597 0.3302-0.053142 0.51409-0.079318 0.79546-0.11256 0.3345-0.039513 0.61218-0.1205 0.78205-0.088183 0.12658 0.024081 2.6316-0.23313 4.9151-0.047955 2.5238 0.20466 4.8485 0.85568 4.9803 0.93483 0.79611 0.47808-12.218 1.4077-17.544 3.2377-3.6917 1.2684-7.3347 4.0269-8.1025 3.4646z" fill="#934f00" fill-opacity=".56732" stroke-width="0"/><text x="20.809986" y="46.874516" fill="#fff0e0" font-size="37.799px" opacity=".25786" stroke="#f7de00" stroke-width="0" xml:space="preserve"><tspan x="20.809986" y="46.874516" fill="#fff0e0" stroke-width="0">B</tspan></text></svg>
